<?xml version="1.0" encoding="UTF-8" standalone="no"?>
<!-- Created with Inkscape (http://www.inkscape.org/) -->

<svg
   xmlns:dc="http://purl.org/dc/elements/1.1/"
   xmlns:cc="http://creativecommons.org/ns#"
   xmlns:rdf="http://www.w3.org/1999/02/22-rdf-syntax-ns#"
   xmlns:svg="http://www.w3.org/2000/svg"
   xmlns="http://www.w3.org/2000/svg"
   xmlns:sodipodi="http://sodipodi.sourceforge.net/DTD/sodipodi-0.dtd"
   xmlns:inkscape="http://www.inkscape.org/namespaces/inkscape"
   width="512"
   height="512"
   viewBox="0 0 135.46666 135.46666"
   version="1.1"
   id="svg66"
   sodipodi:docname="logo.svg"
   inkscape:export-filename="/home/ashwek/AndroidStudioProjects/AirDistance/media/logo.png"
   inkscape:export-xdpi="96.000008"
   inkscape:export-ydpi="96.000008"
   inkscape:version="0.92.3 (2405546, 2018-03-11)">
  <defs
     id="defs60" />
  <sodipodi:namedview
     id="base"
     pagecolor="#ffffff"
     bordercolor="#666666"
     borderopacity="1.0"
     inkscape:pageopacity="0.0"
     inkscape:pageshadow="2"
     inkscape:zoom="0.7"
     inkscape:cx="305.1846"
     inkscape:cy="200.60457"
     inkscape:document-units="mm"
     inkscape:current-layer="layer1"
     showgrid="false"
     units="px"
     inkscape:window-width="1366"
     inkscape:window-height="704"
     inkscape:window-x="0"
     inkscape:window-y="27"
     inkscape:window-maximized="1" />
  <metadata
     id="metadata63">
    <rdf:RDF>
      <cc:Work
         rdf:about="">
        <dc:format>image/svg+xml</dc:format>
        <dc:type
           rdf:resource="http://purl.org/dc/dcmitype/StillImage" />
        <dc:title />
      </cc:Work>
    </rdf:RDF>
  </metadata>
  <g
     inkscape:label="Layer 1"
     inkscape:groupmode="layer"
     id="layer1"
     transform="translate(0,-161.53336)">
    <rect
       style="opacity:1;fill:#000000;fill-opacity:1;stroke:#000000;stroke-width:0.66499996;stroke-miterlimit:4;stroke-dasharray:none"
       id="rect144"
       width="128.88988"
       height="109.99107"
       x="-156.86011"
       y="177.55956" />
    <rect
       style="fill:#bd6200;fill-opacity:1;stroke-width:1.01314759"
       id="rect229"
       width="135.46666"
       height="135.46666"
       x="0"
       y="161.53337"
       ry="20.679066" />
    <g
       id="g207"
       transform="matrix(0.17836085,0,0,0.18086773,22.072956,171.32287)"
       style="opacity:0.4;fill:#ffffff">
      <g
         id="g150"
         style="fill:#ffffff">
	<g
   id="g148"
   style="fill:#ffffff">
		<path
   id="path146"
   d="M 256,0 C 153.755,0 70.573,83.182 70.573,185.426 c 0,126.888 165.939,313.167 173.004,321.035 6.636,7.391 18.222,7.378 24.846,0 7.065,-7.868 173.004,-194.147 173.004,-321.035 C 441.425,83.182 358.244,0 256,0 Z m 0,278.719 c -51.442,0 -93.292,-41.851 -93.292,-93.293 0,-51.442 41.851,-93.292 93.292,-93.292 51.441,0 93.291,41.851 93.291,93.293 0,51.442 -41.85,93.292 -93.291,93.292 z"
   inkscape:connector-curvature="0"
   style="fill:#ffffff" />

	</g>

</g>
      <g
         id="g152"
         style="fill:#ffffff">
</g>
      <g
         id="g154"
         style="fill:#ffffff">
</g>
      <g
         id="g156"
         style="fill:#ffffff">
</g>
      <g
         id="g158"
         style="fill:#ffffff">
</g>
      <g
         id="g160"
         style="fill:#ffffff">
</g>
      <g
         id="g162"
         style="fill:#ffffff">
</g>
      <g
         id="g164"
         style="fill:#ffffff">
</g>
      <g
         id="g166"
         style="fill:#ffffff">
</g>
      <g
         id="g168"
         style="fill:#ffffff">
</g>
      <g
         id="g170"
         style="fill:#ffffff">
</g>
      <g
         id="g172"
         style="fill:#ffffff">
</g>
      <g
         id="g174"
         style="fill:#ffffff">
</g>
      <g
         id="g176"
         style="fill:#ffffff">
</g>
      <g
         id="g178"
         style="fill:#ffffff">
</g>
      <g
         id="g180"
         style="fill:#ffffff">
</g>
    </g>
    <g
       style="fill:#ffffff;stroke:#ffffff"
       id="g100"
       transform="matrix(0.0642099,0,0,0.0642099,6.7285644,252.75904)" />
    <g
       style="fill:#ffffff;stroke:#ffffff"
       id="g102"
       transform="matrix(0.0642099,0,0,0.0642099,6.7285644,252.75904)" />
    <g
       style="fill:#ffffff;stroke:#ffffff"
       id="g104"
       transform="matrix(0.0642099,0,0,0.0642099,6.7285644,252.75904)" />
    <g
       style="fill:#ffffff;stroke:#ffffff"
       id="g106"
       transform="matrix(0.0642099,0,0,0.0642099,6.7285644,252.75904)" />
    <g
       style="fill:#ffffff;stroke:#ffffff"
       id="g108"
       transform="matrix(0.0642099,0,0,0.0642099,6.7285644,252.75904)" />
    <g
       style="fill:#ffffff;stroke:#ffffff"
       id="g110"
       transform="matrix(0.0642099,0,0,0.0642099,6.7285644,252.75904)" />
    <g
       style="fill:#ffffff;stroke:#ffffff"
       id="g112"
       transform="matrix(0.0642099,0,0,0.0642099,6.7285644,252.75904)" />
    <g
       style="fill:#ffffff;stroke:#ffffff"
       id="g114"
       transform="matrix(0.0642099,0,0,0.0642099,6.7285644,252.75904)" />
    <g
       style="fill:#ffffff;stroke:#ffffff"
       id="g116"
       transform="matrix(0.0642099,0,0,0.0642099,6.7285644,252.75904)" />
    <g
       style="fill:#ffffff;stroke:#ffffff"
       id="g118"
       transform="matrix(0.0642099,0,0,0.0642099,6.7285644,252.75904)" />
    <g
       style="fill:#ffffff;stroke:#ffffff"
       id="g120"
       transform="matrix(0.0642099,0,0,0.0642099,6.7285644,252.75904)" />
    <g
       style="fill:#ffffff;stroke:#ffffff"
       id="g122"
       transform="matrix(0.0642099,0,0,0.0642099,6.7285644,252.75904)" />
    <g
       style="fill:#ffffff;stroke:#ffffff"
       id="g124"
       transform="matrix(0.0642099,0,0,0.0642099,6.7285644,252.75904)" />
    <g
       style="fill:#ffffff;stroke:#ffffff"
       id="g126"
       transform="matrix(0.0642099,0,0,0.0642099,6.7285644,252.75904)" />
    <g
       style="fill:#ffffff;stroke:#ffffff"
       id="g128"
       transform="matrix(0.0642099,0,0,0.0642099,6.7285644,252.75904)" />
    <g
       aria-label="AIR DISTANCE"
       transform="matrix(1.0412129,0,0,1.0476854,-156.46874,-10.189602)"
       style="font-style:normal;font-variant:normal;font-weight:normal;font-stretch:normal;font-size:29.01847649px;line-height:0.89999998;font-family:Karumbi;-inkscape-font-specification:'Karumbi, Normal';font-variant-ligatures:normal;font-variant-caps:normal;font-variant-numeric:normal;font-feature-settings:normal;text-align:start;letter-spacing:0px;word-spacing:0px;writing-mode:lr-tb;text-anchor:start;fill:#ffffff;fill-opacity:1;stroke:none;stroke-width:17.1942749"
       id="text70">
      <path
         id="path414"
         style="font-style:normal;font-variant:normal;font-weight:normal;font-stretch:normal;font-size:29.01847649px;font-family:Dyuthi;-inkscape-font-specification:Dyuthi;font-variant-ligatures:normal;font-variant-caps:normal;font-variant-numeric:normal;font-feature-settings:normal;text-align:center;writing-mode:lr-tb;text-anchor:middle;fill:#ffffff;stroke-width:17.1942749"
         d="m 120.17821,248.78226 v -4.47746 l 5.14341,0.12753 q 0.63762,0.0142 1.13354,-0.46759 0.46758,-0.45341 0.46758,-1.13353 v -0.0567 q 0.0142,-0.66595 -0.45341,-1.10519 -0.51009,-0.48176 -1.14771,-0.46759 l -5.14341,0.12753 v -4.02405 l 5.45514,0.25504 q 0.55259,0.0283 1.03435,-0.35422 0.15586,-0.12753 0.55259,-0.90683 l 0.0142,-0.0567 q 0.38257,-0.7793 -0.31172,-1.62945 -0.45341,-0.56677 -1.26105,-0.56677 h -7.21212 q -1.07685,0 -1.78531,0.72263 -0.75097,0.7793 -0.75097,1.81365 v 12.80894 q 0,1.03435 0.75097,1.78531 0.75096,0.75097 1.78531,0.75097 h 7.59468 q 0.68012,0.0142 1.14771,-0.46758 0.46758,-0.45342 0.46758,-1.13354 v -0.0567 q 0,-0.70846 -0.46758,-1.13354 -0.52426,-0.46758 -1.14771,-0.46758 z m -7.59467,-0.28338 q -0.56677,-0.15586 -1.19021,0.0992 -0.96351,0.41091 -1.99786,0.41091 -2.22456,0 -3.78317,-1.75698 -1.54444,-1.75698 -1.54444,-4.23658 0,-2.49378 1.55861,-4.29326 1.54444,-1.75698 3.769,-1.75698 1.03435,0 2.02619,0.45341 0.56677,0.26922 1.13354,0.085 l 0.0567,-0.0283 q 1.07686,-0.35423 1.1052,-1.50193 0,-1.19021 -1.09103,-1.50194 -1.23271,-0.4109 -2.60712,-0.51009 -0.41091,-0.0567 -0.62345,-0.0283 -0.19837,-0.0283 -0.62344,0.0283 -3.98154,0.35423 -6.46115,2.73465 -2.578788,2.49378 -2.578788,6.51783 0,3.72649 2.267068,6.10691 2.4371,2.47961 6.77287,2.69215 0.26921,0.0425 0.42507,0.0425 h 0.0992 q 0.0567,0 0.0992,0 0.0567,0 0.11335,0 h 0.0992 q 0.15586,0 0.41091,-0.0425 1.37441,-0.0567 2.56462,-0.3684 1.21855,-0.31172 1.21855,-1.54444 0.0142,-1.24689 -1.17605,-1.60112 z m -27.332351,-8.41649 6.305284,10.28682 q 0.977674,1.60112 2.791328,1.60112 h 0.08501 q 1.516102,0 2.323746,-0.99184 0.949335,-1.50194 0.949335,-2.32375 v -12.4122 q 0,-0.87849 -0.595106,-1.47359 -0.609275,-0.59511 -1.72864,-0.59511 h -0.05668 q -0.821813,0 -1.445257,0.59511 -0.637613,0.63761 -0.623443,1.47359 l 0.269214,9.84758 -7.452988,-11.03779 q -0.595105,-0.87849 -1.700301,-0.87849 h -1.246888 q -0.878489,0 -1.445256,0.59511 -0.623444,0.62344 -0.623444,1.47359 v 13.63075 q 0,0.87849 0.623444,1.47359 0.609275,0.62345 1.700302,0.62345 h 0.05668 q 0.878489,0 1.473595,-0.62345 0.609274,-0.66595 0.595105,-1.47359 z m -17.031351,4.22241 2.309576,-6.36196 2.295407,6.36196 z m 5.568487,-7.73637 q -0.368399,-1.02018 -1.275226,-1.65779 -0.920997,-0.63761 -1.841993,-0.63761 h -0.396737 q -0.935166,0 -1.841993,0.63761 -0.906828,0.63761 -1.275226,1.71447 l -4.293261,12.46888 q -0.35423,1.02018 0.283383,1.91283 0.623444,0.87849 1.686132,0.87849 h 0.311722 q 0.807643,0 1.416918,-0.42507 0.595106,-0.39674 0.722628,-1.07686 l 0.680121,-3.47145 h 5.370118 l 0.736797,3.51396 q 0.113354,0.62344 0.722628,1.03435 0.566768,0.42507 1.232719,0.42507 h 0.311722 q 1.048519,0 1.71447,-0.90682 0.623444,-0.87849 0.255046,-1.8845 z m -26.553042,-0.32589 q 0.07085,0.39674 0.51009,0.77931 0.410907,0.34006 0.878489,0.29755 l 3.258911,-0.25505 v 12.86562 q 0,0.93516 0.623444,1.55861 0.609275,0.62344 1.530271,0.62344 h 0.01417 q 0.935165,0 1.558609,-0.62344 0.623444,-0.62345 0.623444,-1.55861 v -12.86562 l 3.258911,0.25505 q 0.410906,0.0425 0.878489,-0.29755 0.396737,-0.3259 0.51009,-0.77931 v -0.0567 q 0.240876,-0.80764 -0.255045,-1.47359 -0.425075,-0.53843 -1.133534,-0.53843 h -10.86776 q -0.708458,0 -1.133534,0.53843 -0.467583,0.59511 -0.255045,1.47359 z m -6.730358,5.18592 q -1.813654,-0.69429 -2.465437,-1.1052 -0.750966,-0.49592 -0.750966,-1.27522 0,-0.66595 0.566767,-1.13354 0.680121,-0.51009 1.89867,-0.49592 0.949335,0 2.139546,0.34006 0.68012,0.1842 1.246887,-0.15586 0.595106,-0.35423 0.793474,-1.00601 l 0.02834,-0.0283 q 0.155861,-0.66595 -0.198369,-1.31773 -0.368398,-0.62345 -1.03435,-0.77931 -1.841993,-0.45341 -2.93302,-0.45341 -3.018034,-0.0283 -4.888366,1.47359 -1.856162,1.44526 -1.856162,3.86819 0,3.57063 4.916705,5.32761 1.601117,0.56677 2.252899,1.09103 0.637613,0.51009 0.637613,1.26105 0,0.86432 -0.722628,1.31774 -0.722628,0.52426 -1.969516,0.52426 -1.03435,0 -2.734651,-0.53843 -0.722628,-0.24088 -1.374411,0.12752 -0.637613,0.35423 -0.821812,1.07686 l -0.02834,0.0567 q -0.155861,0.66595 0.212537,1.28939 0.35423,0.62345 1.006012,0.77931 2.097038,0.62344 3.485618,0.62344 3.669817,0 5.582656,-1.75698 1.601117,-1.50193 1.601117,-3.78317 0,-1.85616 -1.133534,-3.14556 -1.091027,-1.30356 -3.45728,-2.18205 z m -9.592533,8.459 q 0,0.86432 -0.623444,1.50193 -0.595106,0.60928 -1.473595,0.60928 h -0.04251 q -0.878489,0 -1.501933,-0.60928 -0.623444,-0.62344 -0.623444,-1.50193 v -13.87163 q 0,-0.89265 0.623444,-1.50193 0.623444,-0.62344 1.501933,-0.62344 h 0.04251 q 0.850151,0 1.473595,0.62344 0.623444,0.60928 0.623444,1.50193 z m -17.456428,0.0709 q -0.566767,0 -0.991842,-0.41091 -0.382568,-0.39674 -0.382568,-0.99184 v -11.06613 q 0,-0.60928 0.382568,-0.99184 0.410906,-0.41091 0.991842,-0.41091 h 0.01417 q 2.720482,0 4.633321,1.75698 1.742809,1.60112 1.742809,4.23658 0,4.51997 -1.742809,6.12109 -1.912839,1.75698 -4.633321,1.75698 z m -3.9673694,-15.6995 q -0.5384287,0.0425 -0.8926582,0.4109 -0.3683986,0.38257 -0.3683986,0.93517 v 14.73594 q 0,0.56677 0.3542295,0.96351 0.3683986,0.38257 0.9351657,0.4109 3.513956,0.17003 4.449122,0.17003 5.072566,0 7.92057,-2.4796 2.635467,-2.35209 2.635467,-6.2061 0,-4.29326 -3.216403,-6.80121 -3.046373,-2.35208 -7.807217,-2.35208 -0.949335,0 -4.0098774,0.21254 z M 77.628171,206.98645 h 2.040362 q 1.006011,0 1.785316,0.82181 0.765136,0.77931 0.765136,2.91885 0,2.15372 -0.765136,2.93302 -0.722628,0.76514 -1.785316,0.79348 h -2.040362 z m 6.461145,8.43066 q 0.609275,-0.52426 1.006012,-1.1477 1.091026,-1.7003 1.091026,-3.41478 0,-2.1112 -1.402748,-3.74066 -1.37441,-1.61528 -3.44311,-1.91284 l -0.127523,-0.0283 q -0.226707,-0.0567 -0.765136,-0.0567 h -4.888366 q -0.878489,0 -1.501933,0.62344 -0.623444,0.62345 -0.623444,1.4736 v 13.75827 q 0,0.82181 0.623444,1.44525 0.595106,0.59511 1.445256,0.59511 h 0.05668 q 0.807643,0 1.445256,-0.59511 0.623444,-0.56676 0.623444,-1.44525 v -4.36411 l 3.117219,-0.0567 1.331903,3.95321 q 0.665951,1.99785 2.323745,2.42292 0.793474,0.22671 1.516102,-0.19836 h 0.02834 q 0.623444,-0.0142 0.935166,-1.24689 0.240876,-0.96351 -0.212538,-1.72864 z m -12.794768,5.39846 q 0,0.86432 -0.623444,1.50193 -0.595105,0.60927 -1.473594,0.60927 H 69.155 q -0.878489,0 -1.501932,-0.60927 -0.623444,-0.62344 -0.623444,-1.50193 v -13.87163 q 0,-0.89266 0.623444,-1.50193 0.623443,-0.62344 1.501932,-0.62344 h 0.04251 q 0.850151,0 1.473594,0.62344 0.623444,0.60927 0.623444,1.50193 z m -17.102197,-5.58266 2.309576,-6.36196 2.295407,6.36196 z m 5.568487,-7.73637 q -0.368399,-1.02018 -1.275226,-1.65779 -0.920996,-0.63762 -1.841993,-0.63762 h -0.396737 q -0.935166,0 -1.841993,0.63762 -0.906828,0.63761 -1.275226,1.71447 l -4.293261,12.46887 q -0.35423,1.02018 0.283383,1.91284 0.623444,0.87849 1.686133,0.87849 h 0.311722 q 0.807643,0 1.416917,-0.42507 0.595106,-0.39674 0.722628,-1.07686 l 0.680121,-3.47145 h 5.370118 l 0.736798,3.51396 q 0.113353,0.62344 0.722628,1.03435 0.566767,0.42507 1.232718,0.42507 h 0.311722 q 1.048519,0 1.714471,-0.90683 0.623443,-0.87849 0.255045,-1.8845 z"
         inkscape:connector-curvature="0" />
    </g>
    <flowRoot
       xml:space="preserve"
       id="flowRoot76"
       style="font-style:normal;font-weight:normal;font-size:40px;line-height:1.25;font-family:sans-serif;letter-spacing:0px;word-spacing:0px;fill:#000000;fill-opacity:1;stroke:none"
       transform="matrix(0.26458333,0,0,0.26458333,0,-215)"><flowRegion
         id="flowRegion78"><rect
           id="rect80"
           width="508.57144"
           height="148.57143"
           x="382.85715"
           y="1466.5468" /></flowRegion><flowPara
         id="flowPara82" /></flowRoot>    <g
       aria-label="AIR
DISTANCE"
       transform="matrix(0.95357927,0,0,0.9482605,-0.00401096,31.463456)"
       style="font-style:normal;font-variant:normal;font-weight:normal;font-stretch:normal;font-size:31.64510918px;line-height:0.80000001;font-family:sans-serif;-inkscape-font-specification:'sans-serif, Normal';font-variant-ligatures:normal;font-variant-caps:normal;font-variant-numeric:normal;font-feature-settings:normal;text-align:center;letter-spacing:0px;word-spacing:0px;writing-mode:lr-tb;text-anchor:middle;fill:#ffffff;fill-opacity:1;stroke:#000000;stroke-width:0.16481827"
       id="text136">
      <path
         id="path342"
         style="font-style:normal;font-variant:normal;font-weight:normal;font-stretch:normal;font-size:31.64510918px;font-family:Dyuthi;-inkscape-font-specification:Dyuthi;font-variant-ligatures:normal;font-variant-caps:normal;font-variant-numeric:normal;font-feature-settings:normal;text-align:center;writing-mode:lr-tb;text-anchor:middle;fill:#ffffff;stroke:#000000;stroke-width:0.15206732"
         d="m 119.51162,256.58594 v -4.88407 l 4.77338,0.1391 q 0.59174,0.0155 1.05199,-0.51005 0.43393,-0.49459 0.43393,-1.23647 v -0.0618 q 0.0132,-0.72642 -0.42078,-1.20555 -0.4734,-0.52551 -1.06514,-0.51006 l -4.77338,0.13911 v -4.38947 l 5.06267,0.2782 q 0.51285,0.0309 0.95994,-0.38639 0.14465,-0.13911 0.51284,-0.98919 l 0.0132,-0.0618 q 0.35505,-0.85008 -0.2893,-1.77742 -0.42079,-0.61824 -1.17033,-0.61824 h -6.69325 q -0.99939,0 -1.65688,0.78825 -0.69694,0.85007 -0.69694,1.97835 v 13.97214 q 0,1.1283 0.69694,1.94746 0.69693,0.81916 1.65688,0.81916 h 7.0483 q 0.63119,0.0154 1.06513,-0.51004 0.43394,-0.49459 0.43394,-1.23647 v -0.0618 q 0,-0.7728 -0.43394,-1.23648 -0.48654,-0.51004 -1.06513,-0.51004 z m -7.04831,-0.30912 q -0.52599,-0.17001 -1.10458,0.10818 -0.89419,0.44823 -1.85413,0.44823 -2.06451,0 -3.51099,-1.91653 -1.43333,-1.91654 -1.43333,-4.62132 0,-2.72025 1.44648,-4.68315 1.43333,-1.91654 3.49784,-1.91654 0.95994,0 1.88043,0.49461 0.52599,0.29366 1.05198,0.0927 l 0.0526,-0.0309 q 0.99939,-0.3864 1.0257,-1.63833 0,-1.29829 -1.01254,-1.63833 -1.14403,-0.44822 -2.41957,-0.55641 -0.38134,-0.0618 -0.5786,-0.0309 -0.18409,-0.0309 -0.57858,0.0309 -3.6951,0.3864 -5.99632,2.98299 -2.39326,2.72024 -2.39326,7.10972 0,4.06491 2.10396,6.6615 2.26177,2.70479 6.28562,2.93662 0.24984,0.0464 0.39449,0.0464 h 0.0921 q 0.0526,0 0.092,0 0.0526,0 0.10521,0 h 0.0921 q 0.14465,0 0.38134,-0.0464 1.27554,-0.0618 2.38012,-0.40184 1.13089,-0.34003 1.13089,-1.68471 0.0131,-1.36012 -1.09144,-1.74651 z m -25.365995,-9.18082 5.851669,11.221 q 0.907337,1.74652 2.590514,1.74652 h 0.0789 q 1.407032,0 2.156573,-1.08192 0.88103,-1.63833 0.88103,-2.53476 v -13.53939 q 0,-0.95826 -0.552287,-1.60741 -0.565439,-0.64915 -1.604278,-0.64915 h -0.05259 q -0.762686,0 -1.341279,0.64915 -0.591742,0.69551 -0.578591,1.60741 l 0.249846,10.74187 -6.916805,-12.04016 q -0.552292,-0.95827 -1.577977,-0.95827 h -1.157184 q -0.815289,0 -1.341282,0.64915 -0.578591,0.68005 -0.578591,1.60741 v 14.86858 q 0,0.95828 0.578591,1.60743 0.565443,0.68006 1.577978,0.68006 h 0.0526 q 0.815289,0 1.367582,-0.68006 0.565441,-0.72643 0.552291,-1.60743 z m -15.806084,4.60587 2.143421,-6.93971 2.130271,6.93971 z m 5.167879,-8.43894 q -0.341896,-1.11282 -1.183484,-1.80834 -0.854737,-0.69551 -1.709475,-0.69551 h -0.368195 q -0.867889,0 -1.709477,0.69551 -0.841588,0.69552 -1.183483,1.87016 l -3.984397,13.60122 q -0.328744,1.11282 0.262999,2.08655 0.578591,0.95826 1.564828,0.95826 h 0.289295 q 0.749539,0 1.314983,-0.46367 0.552292,-0.43277 0.67064,-1.17466 l 0.631191,-3.78669 h 4.983781 l 0.683791,3.83307 q 0.105198,0.68006 0.67064,1.12828 0.525993,0.46367 1.144034,0.46367 h 0.289296 q 0.973088,0 1.591129,-0.98918 0.578592,-0.95827 0.236697,-2.05563 z m -24.642759,-0.35548 q 0.06575,0.43276 0.473393,0.85007 0.381346,0.37095 0.815288,0.32459 l 3.024459,-0.27823 v 14.03398 q 0,1.0201 0.578592,1.70016 0.565443,0.68005 1.420181,0.68005 h 0.01315 q 0.867889,0 1.44648,-0.68005 0.578593,-0.68006 0.578593,-1.70016 v -14.03398 l 3.024457,0.27823 q 0.381346,0.0463 0.81529,-0.32459 0.368195,-0.35548 0.473393,-0.85007 v -0.0618 q 0.223546,-0.88098 -0.236697,-1.60741 -0.394494,-0.58732 -1.051986,-0.58732 H 53.105032 q -0.65749,0 -1.051985,0.58732 -0.433943,0.64914 -0.236696,1.60741 z m -6.246162,5.65686 q -1.683177,-0.75733 -2.288069,-1.20556 -0.69694,-0.54095 -0.69694,-1.39104 0,-0.72642 0.525993,-1.23645 0.631191,-0.55642 1.762075,-0.54096 0.881038,0 1.985622,0.37094 0.631192,0.20092 1.157185,-0.17001 0.552293,-0.3864 0.73639,-1.09738 l 0.0263,-0.0309 q 0.144648,-0.72643 -0.184098,-1.4374 -0.341895,-0.68005 -0.959936,-0.85007 -1.709477,-0.49458 -2.722012,-0.49458 -2.800912,-0.0309 -4.536688,1.60741 -1.722626,1.57649 -1.722626,4.21947 0,3.89488 4.562987,5.81142 1.485929,0.61822 2.090821,1.1901 0.591741,0.55642 0.591741,1.37558 0,0.94281 -0.670639,1.4374 -0.670642,0.57186 -1.827827,0.57186 -0.959936,0 -2.537914,-0.58731 -0.670641,-0.26276 -1.275532,0.13909 -0.591742,0.38641 -0.76269,1.17465 l -0.0263,0.0618 q -0.144648,0.72644 0.197246,1.40651 0.328746,0.68005 0.933637,0.85006 1.946174,0.68006 3.234856,0.68006 3.405802,0 5.181029,-1.91654 1.485928,-1.63833 1.485928,-4.12671 0,-2.02474 -1.051984,-3.43122 -1.012537,-1.42195 -3.208555,-2.38022 z m -8.902427,9.22718 q 0,0.94282 -0.578592,1.63834 -0.552292,0.6646 -1.367582,0.6646 h -0.03945 q -0.81529,0 -1.393881,-0.6646 -0.578593,-0.68006 -0.578593,-1.63834 v -15.13133 q 0,-0.97373 0.578593,-1.63833 0.578591,-0.68006 1.393881,-0.68006 h 0.03945 q 0.78899,0 1.367582,0.68006 0.578592,0.6646 0.578592,1.63833 z m -16.200576,0.0773 q -0.525992,0 -0.920487,-0.44821 -0.355045,-0.43276 -0.355045,-1.08192 v -12.07105 q 0,-0.66462 0.355045,-1.08193 0.381344,-0.44821 0.920487,-0.44821 h 0.01315 q 2.524765,0 4.29999,1.91653 1.617428,1.74651 1.617428,4.62132 0,4.93044 -1.617428,6.67695 -1.775225,1.91652 -4.29999,1.91652 z m -3.681949,-17.12513 q -0.499693,0.0464 -0.828438,0.44822 -0.341896,0.41732 -0.341896,1.02009 v 16.07416 q 0,0.61824 0.328746,1.05101 0.341895,0.4173 0.867888,0.44821 3.261155,0.18547 4.129042,0.18547 4.707636,0 7.35075,-2.70478 2.445866,-2.56569 2.445866,-6.76969 0,-4.68315 -2.985009,-7.41885 -2.827212,-2.56567 -7.24555,-2.56567 -0.881038,0 -3.721399,0.23183 z m 63.237476,-25.24573 h 1.893573 q 0.933638,0 1.656878,0.89646 0.71009,0.85006 0.71009,3.1839 0,2.34931 -0.71009,3.19937 -0.670641,0.83463 -1.656878,0.86553 h -1.893573 z m 5.996317,9.19627 q 0.565442,-0.57188 0.933637,-1.25193 1.012535,-1.8547 1.012535,-3.72488 0,-2.30292 -1.301831,-4.08035 -1.275533,-1.76198 -3.195407,-2.08656 l -0.118347,-0.0309 q -0.210397,-0.0618 -0.71009,-0.0618 h -4.536689 q -0.815288,0 -1.393879,0.68006 -0.578593,0.68006 -0.578593,1.60742 v 15.00768 q 0,0.89644 0.578593,1.57649 0.552292,0.64915 1.34128,0.64915 h 0.0526 q 0.749539,0 1.341282,-0.64915 0.578591,-0.61823 0.578591,-1.57649 v -4.76043 l 2.89296,-0.0618 1.236083,4.31221 q 0.618042,2.17927 2.156571,2.64295 0.736389,0.2473 1.40703,-0.21638 h 0.0263 q 0.578592,-0.0155 0.867888,-1.36012 0.223546,-1.051 -0.197247,-1.88562 z m -11.874286,5.88871 q 0,0.94281 -0.578592,1.63832 -0.552293,0.6646 -1.367582,0.6646 h -0.03945 q -0.815289,0 -1.393881,-0.6646 -0.578592,-0.68006 -0.578592,-1.63832 v -15.13135 q 0,-0.97372 0.578592,-1.63832 0.578592,-0.68006 1.393881,-0.68006 h 0.03945 q 0.788989,0 1.367582,0.68006 0.578592,0.6646 0.578592,1.63832 z m -15.871831,-6.08964 2.143421,-6.9397 2.130271,6.9397 z m 5.167879,-8.43892 q -0.341896,-1.11284 -1.183484,-1.80834 -0.854737,-0.69553 -1.709476,-0.69553 h -0.368195 q -0.867888,0 -1.709476,0.69553 -0.841588,0.6955 -1.183484,1.87016 l -3.984395,13.6012 q -0.328746,1.11283 0.262996,2.08654 0.578594,0.95827 1.564829,0.95827 h 0.289296 q 0.749539,0 1.314981,-0.46366 0.552293,-0.43277 0.670642,-1.17466 l 0.631191,-3.7867 h 4.98378 l 0.683791,3.83307 q 0.105199,0.68006 0.670641,1.12829 0.525993,0.46366 1.144034,0.46366 h 0.289296 q 0.973087,0 1.591129,-0.98917 0.578591,-0.95827 0.236697,-2.05564 z"
         inkscape:connector-curvature="0" />
    </g>
    <text
       xml:space="preserve"
       style="font-style:normal;font-variant:normal;font-weight:normal;font-stretch:normal;font-size:31.64510918px;line-height:0.80000001;font-family:sans-serif;-inkscape-font-specification:'sans-serif, Normal';font-variant-ligatures:normal;font-variant-caps:normal;font-variant-numeric:normal;font-feature-settings:normal;text-align:center;letter-spacing:0px;word-spacing:0px;writing-mode:lr-tb;text-anchor:middle;fill:#ffffff;fill-opacity:1;stroke:#000000;stroke-width:0.16481826"
       x="236.78288"
       y="251.08846"
       id="text136-1"
       transform="scale(0.95352281,1.0487426)"><tspan
         sodipodi:role="line"
         x="236.78288"
         y="251.08846"
         style="font-style:normal;font-variant:normal;font-weight:normal;font-stretch:normal;font-size:31.64510918px;font-family:Dyuthi;-inkscape-font-specification:Dyuthi;font-variant-ligatures:normal;font-variant-caps:normal;font-variant-numeric:normal;font-feature-settings:normal;text-align:center;writing-mode:lr-tb;text-anchor:middle;fill:#ffffff;stroke:#000000;stroke-width:0.16481826"
         id="tspan138-3">AIR</tspan><tspan
         sodipodi:role="line"
         x="236.78288"
         y="278.28964"
         style="font-style:normal;font-variant:normal;font-weight:normal;font-stretch:normal;font-size:31.64510918px;font-family:Dyuthi;-inkscape-font-specification:Dyuthi;font-variant-ligatures:normal;font-variant-caps:normal;font-variant-numeric:normal;font-feature-settings:normal;text-align:center;writing-mode:lr-tb;text-anchor:middle;fill:#ffffff;stroke:#000000;stroke-width:0.16481826"
         id="tspan142-7">DISTANCE</tspan></text>
  </g>
</svg>
